# xmcd CD database file
# Copyright (C) 1993-2000  Ti Kan
#
# Track frame offsets:
#	900
#	25052
#	45227
#	62937
#	95200
#	117690
#	143875
#	166742
#
# Disc length: 2500 seconds
#
# Revision: 3
# Processed by: cddbd v1.5.2PL0 Copyright (c) Steve Scherf et al.
# Submitted via: xmcd 2.6 PL0
#
DISCID=6309b308,6d09b808
DTITLE=Rolling Stones - Black And Blue
DYEAR=1900
DGENRE=
TTITLE0=Hot Stuff
TTITLE1=Hand Of Fate
TTITLE2=Cherry Oh Baby
TTITLE3=Memory Motel
TTITLE4=Hey Negrita
TTITLE5=Melody
TTITLE6=Fool To Cry
TTITLE7=Crazy Mama
EXTD=
EXTT0=
EXTT1=
EXTT2=
EXTT3=
EXTT4=
EXTT5=
EXTT6=
EXTT7=
PLAYORDER=
